Jump_normalized_pl04_filtered_grf
version=1
nRows=30
nColumns=37
inDegrees=yes
endheader
time		1_ground_force_vx		1_ground_force_vy		1_ground_force_vz		1_ground_force_px		1_ground_force_py		1_ground_force_pz		1_ground_torque_x		1_ground_torque_y		1_ground_torque_z		2_ground_force_vx		2_ground_force_vy		2_ground_force_vz		2_ground_force_px		2_ground_force_py		2_ground_force_pz		2_ground_torque_x		2_ground_torque_y		2_ground_torque_z		3_ground_force_vx		3_ground_force_vy		3_ground_force_vz		3_ground_force_px		3_ground_force_py		3_ground_force_pz		3_ground_torque_x		3_ground_torque_y		3_ground_torque_z		4_ground_force_vx		4_ground_force_vy		4_ground_force_vz		4_ground_force_px		4_ground_force_py		4_ground_force_pz		4_ground_torque_x		4_ground_torque_y		4_ground_torque_z		
0.076167		-0.000000		0.000000		0.000000		0.132236		0.000000		0.267992		0.000000		0.000000		-0.000000		-0.000000		0.000000		0.000000		-0.141844		0.000000		0.275422		0.000000		-0.000000		0.000000		4.742454		262.495987		313.188953		0.374002		1.308416		1.915775		-0.215543		-11.930204		-14.234170		-3.048431		425.219889		398.273231		-0.266342		1.309050		1.927448		2.155280		-36.322992		71.469271		
0.078338		-0.000000		0.000000		0.000000		0.132236		0.000000		0.267992		0.000000		0.000000		-0.000000		-0.000000		0.000000		0.000000		-0.141844		0.000000		0.275422		0.000000		-0.000000		0.000000		5.613324		257.487509		312.245656		0.373979		1.308468		1.915868		-0.256619		-11.771186		-14.274500		-2.533459		421.496739		401.604243		-0.266321		1.309057		1.927494		2.227153		-36.997922		71.235561		
0.080510		0.000000		0.000000		-0.000000		0.132236		0.000000		0.267992		0.000000		-0.000000		-0.000000		-0.000000		0.000000		0.000000		-0.141844		0.000000		0.275422		0.000000		-0.000000		0.000000		6.421018		252.470655		310.878642		0.373962		1.308532		1.915973		-0.295124		-11.604082		-14.288637		-2.043361		417.737085		404.837339		-0.266297		1.309065		1.927537		2.299717		-37.657690		70.988177		
0.082682		0.000000		-0.000000		-0.000000		0.132236		0.000000		0.267992		-0.000000		-0.000000		0.000000		-0.000000		-0.000000		0.000000		-0.141844		0.000000		0.275422		-0.000000		0.000000		-0.000000		7.166362		247.475246		309.044882		0.373953		1.308607		1.916085		-0.330974		-11.429420		-14.272968		-1.564920		413.912688		407.949885		-0.266271		1.309073		1.927579		2.372394		-38.298320		70.725742		
0.084854		0.000000		-0.000000		-0.000000		0.132236		0.000000		0.267992		-0.000000		-0.000000		0.000000		-0.000000		-0.000000		-0.000000		-0.141844		0.000000		0.275422		-0.000000		0.000000		-0.000000		7.859940		242.513426		306.707669		0.373954		1.308685		1.916201		-0.364539		-11.247587		-14.224875		-1.081462		409.992519		410.925070		-0.266244		1.309082		1.927618		2.444665		-38.916885		70.447219		
0.087025		0.000000		-0.000000		-0.000000		0.132236		0.000000		0.267992		-0.000000		-0.000000		0.000000		-0.000000		-0.000000		-0.000000		-0.141844		0.000000		0.275422		-0.000000		0.000000		-0.000000		8.513108		237.574717		303.819698		0.373965		1.308760		1.916314		-0.396255		-11.058266		-14.141738		-0.581265		405.946256		413.749101		-0.266217		1.309093		1.927656		2.515458		-39.511064		70.151503		
0.089197		0.000000		-0.000000		-0.000000		0.132236		0.000000		0.267992		-0.000000		-0.000000		0.000000		-0.000000		-0.000000		-0.000000		-0.141844		0.000000		0.275422		-0.000000		0.000000		-0.000000		9.140199		232.638667		300.320453		0.373984		1.308826		1.916418		-0.426729		-10.861186		-14.021045		-0.059898		401.749849		416.413377		-0.266191		1.309107		1.927692		2.583254		-40.079625		69.837921		
0.091369		0.000000		-0.000000		-0.000000		0.132236		0.000000		0.267992		-0.000000		-0.000000		0.000000		-0.000000		-0.000000		-0.000000		-0.141844		0.000000		0.275422		-0.000000		0.000000		-0.000000		9.762287		227.679563		296.166335		0.374007		1.308879		1.916511		-0.456930		-10.656661		-13.862222		0.480390		397.400035		418.918281		-0.266165		1.309122		1.927724		2.647031		-40.623111		69.507591		
0.093540		0.000000		-0.000000		-0.000000		0.132236		0.000000		0.267992		-0.000000		-0.000000		0.000000		0.000000		-0.000000		-0.000000		-0.141844		0.000000		0.275422		-0.000000		0.000000		-0.000000		10.400762		222.667130		291.310617		0.374032		1.308918		1.916589		-0.487894		-10.445200		-13.665232		1.029011		392.905940		421.268793		-0.266139		1.309138		1.927753		2.705907		-41.143170		69.162465		
0.095712		0.000000		-0.000000		-0.000000		0.132236		0.000000		0.267992		-0.000000		-0.000000		0.000000		0.000000		-0.000000		-0.000000		-0.141844		0.000000		0.275422		-0.000000		0.000000		-0.000000		11.075608		217.566402		285.717837		0.374059		1.308942		1.916655		-0.520653		-10.227556		-13.431280		1.567386		388.288919		423.478811		-0.266112		1.309155		1.927778		2.759337		-41.643085		68.805503		
0.097884		-0.000000		0.000000		0.000000		0.132236		0.000000		0.267992		0.000000		0.000000		-0.000000		0.000000		-0.000000		-0.000000		-0.141844		0.000000		0.275422		-0.000000		0.000000		-0.000000		11.800728		212.339350		279.391548		0.374084		1.308955		1.916708		-0.556002		-10.004530		-13.163746		2.072107		383.579702		425.576415		-0.266086		1.309173		1.927796		0.714031		1.865959		28.834602		
0.100056		-0.000000		0.000000		0.000000		0.132236		0.000000		0.267992		0.000000		0.000000		-0.000000		0.000000		0.000000		0.000000		-0.141844		0.000000		0.275422		0.000000		-0.000000		0.000000		12.583496		206.939038		272.342655		0.374105		1.308959		1.916753		-0.594478		-9.776342		-12.866180		2.518836		378.806710		427.597857		-0.266059		1.309191		1.927806		0.100150		15.061392		17.001342		
0.102227		-0.000000		0.000000		0.000000		0.132236		0.000000		0.267992		0.000000		0.000000		-0.000000		0.000000		0.000000		0.000000		-0.141844		0.000000		0.275422		0.000000		-0.000000		0.000000		13.421375		201.302507		264.603864		0.374124		1.308960		1.916791		-0.636197		-9.542046		-12.542625		2.885502		373.993628		429.588130		-0.266031		1.309210		1.927808		0.115450		14.963509		17.187874		
0.104399		-0.000000		0.000000		0.000000		0.132236		0.000000		0.267992		0.000000		0.000000		-0.000000		0.000000		0.000000		0.000000		-0.141844		0.000000		0.275422		0.000000		-0.000000		0.000000		14.302548		195.360424		256.229373		0.374139		1.308965		1.916829		-0.680831		-9.299532		-12.197010		3.163702		369.158285		431.593312		-0.266001		1.309229		1.927801		0.127396		14.865133		17.379261		
0.106571		-0.000000		0.000000		0.000000		0.132236		0.000000		0.267992		0.000000		0.000000		-0.000000		0.000000		0.000000		0.000000		-0.141844		0.000000		0.275422		0.000000		-0.000000		0.000000		15.205634		189.015140		247.267257		0.374152		1.308974		1.916867		-0.727599		-9.044464		-11.831855		3.351332		364.309480		433.655154		-0.265972		1.309249		1.927787		0.135830		14.765560		17.576171		
0.108742		-0.000000		0.000000		0.000000		0.132236		0.000000		0.267992		0.000000		0.000000		-0.000000		-0.000000		0.000000		0.000000		-0.141844		0.000000		0.275422		0.000000		-0.000000		0.000000		16.100281		182.150370		237.764040		0.374164		1.308993		1.916909		-0.775223		-8.770408		-11.448164		3.453999		359.448292		435.805344		-0.265944		1.309271		1.927765		0.140910		14.664125		17.779231		
0.110914		-0.000000		0.000000		0.000000		0.132236		0.000000		0.267992		0.000000		0.000000		-0.000000		-0.000000		0.000000		0.000000		-0.141844		0.000000		0.275422		0.000000		-0.000000		0.000000		16.953132		174.649560		227.757788		0.374175		1.309022		1.916954		-0.822148		-8.469647		-11.045134		3.483682		354.569984		438.057823		-0.265918		1.309295		1.927734		0.143056		14.560275		17.988686		
0.113086		0.000000		0.000000		-0.000000		0.132236		0.000000		0.267992		0.000000		-0.000000		-0.000000		-0.000000		0.000000		0.000000		-0.141844		0.000000		0.275422		0.000000		-0.000000		0.000000		17.733017		166.389296		217.253849		0.374187		1.309060		1.917003		-0.866800		-8.133161		-10.619438		3.452856		349.665555		440.408836		-0.265895		1.309321		1.927697		0.142724		14.453504		18.204415		
0.115258		0.000000		-0.000000		-0.000000		0.132236		0.000000		0.267992		-0.000000		-0.000000		0.000000		-0.000000		-0.000000		0.000000		-0.141844		0.000000		0.275422		-0.000000		0.000000		-0.000000		18.418351		157.275697		206.237037		0.374199		1.309107		1.917054		-0.907908		-7.752608		-10.166071		3.373685		344.724421		442.833037		-0.265876		1.309349		1.927653		0.140373		14.343437		18.425613		
0.117429		0.000000		-0.000000		-0.000000		0.132236		0.000000		0.267992		-0.000000		-0.000000		0.000000		-0.000000		-0.000000		-0.000000		-0.141844		0.000000		0.275422		-0.000000		0.000000		-0.000000		19.002828		147.269847		194.675089		0.374215		1.309162		1.917106		-0.944814		-7.322172		-9.679138		3.255702		339.736588		445.286625		-0.265861		1.309380		1.927602		0.136365		14.229828		18.650795		
0.119601		0.000000		-0.000000		-0.000000		0.132236		0.000000		0.267992		-0.000000		-0.000000		0.000000		-0.000000		-0.000000		-0.000000		-0.141844		0.000000		0.275422		-0.000000		0.000000		-0.000000		19.493963		136.381254		182.512307		0.374236		1.309224		1.917158		-0.977481		-6.838480		-9.151610		3.103840		334.691680		447.712996		-0.265852		1.309414		1.927542		0.130875		14.112429		18.878047		
0.121773		0.000000		-0.000000		-0.000000		0.132236		0.000000		0.267992		-0.000000		-0.000000		0.000000		-0.000000		-0.000000		-0.000000		-0.141844		0.000000		0.275422		-0.000000		0.000000		-0.000000		19.914775		124.709154		169.706489		0.374263		1.309287		1.917208		-1.006569		-6.303201		-8.577528		2.920391		329.581669		450.048435		-0.265846		1.309450		1.927474		0.123974		13.991168		19.105174		
0.123944		0.000000		-0.000000		-0.000000		0.132236		0.000000		0.267992		-0.000000		-0.000000		0.000000		0.000000		-0.000000		-0.000000		-0.141844		0.000000		0.275422		-0.000000		0.000000		-0.000000		20.295881		112.440327		156.239511		0.374295		1.309348		1.917255		-1.033062		-5.723198		-7.952577		2.708112		324.401158		452.232295		-0.265843		1.309488		1.927398		0.115755		13.866184		19.330206		
0.126116		0.000000		-0.000000		-0.000000		0.132236		0.000000		0.267992		-0.000000		-0.000000		0.000000		0.000000		-0.000000		-0.000000		-0.141844		0.000000		0.275422		-0.000000		0.000000		-0.000000		20.667781		99.828974		142.120917		0.374332		1.309406		1.917298		-1.057786		-5.109260		-7.273775		2.469738		319.146103		454.210057		-0.265841		1.309527		1.927312		3.223179		-48.746120		63.438353		
0.128288		0.000000		-0.000000		-0.000000		0.132236		0.000000		0.267992		-0.000000		-0.000000		0.000000		0.000000		-0.000000		-0.000000		-0.141844		0.000000		0.275422		-0.000000		0.000000		-0.000000		21.054608		87.190064		127.428830		0.374373		1.309458		1.917338		-1.080992		-4.476525		-6.542473		2.208953		313.818628		455.945695		-0.265839		1.309567		1.927218		3.241168		-49.198579		62.980917		
0.130460		-0.000000		0.000000		0.000000		0.132236		0.000000		0.267992		0.000000		0.000000		-0.000000		0.000000		-0.000000		-0.000000		-0.141844		0.000000		0.275422		-0.000000		0.000000		-0.000000		21.467571		74.841520		112.303784		0.374414		1.309501		1.917375		-1.101862		-3.841382		-5.764202		1.928678		308.428418		457.420672		-0.265838		1.309608		1.927113		3.254909		-49.616593		62.507481		
0.132631		-0.000000		0.000000		0.000000		0.132236		0.000000		0.267992		0.000000		0.000000		-0.000000		0.000000		0.000000		0.000000		-0.141844		0.000000		0.275422		0.000000		-0.000000		0.000000		21.902411		63.077163		96.947159		0.374453		1.309537		1.917410		-1.117977		-3.219744		-4.948612		1.629294		302.994534		458.626775		-0.265836		1.309649		1.926999		3.263993		-49.997849		62.020274		
0.134803		-0.000000		0.000000		0.000000		0.132236		0.000000		0.267992		0.000000		0.000000		-0.000000		0.000000		0.000000		0.000000		-0.141844		0.000000		0.275422		0.000000		-0.000000		0.000000		22.339764		52.112244		81.629012		0.374485		1.309564		1.917442		-1.125091		-2.624649		-4.111254		1.308318		297.549385		459.573828		-0.265831		1.309690		1.926875		3.268216		-50.342225		61.523268		
0.136975		-0.000000		0.000000		0.000000		0.132236		0.000000		0.267992		0.000000		0.000000		-0.000000		0.000000		0.000000		0.000000		-0.141844		0.000000		0.275422		0.000000		-0.000000		0.000000		22.748832		42.087786		66.662336		0.374507		1.309584		1.917474		-1.116340		-2.065390		-3.271344		0.959442		292.135095		460.277391		-0.265827		1.309730		1.926742		3.267481		-50.650339		61.021275		
0.139146		-0.000000		0.000000		0.000000		0.132236		0.000000		0.267992		0.000000		0.000000		-0.000000		0.000000		0.000000		0.000000		-0.141844		0.000000		0.275422		0.000000		-0.000000		0.000000		23.093271		33.103563		52.411293		0.374520		1.309600		1.917504		-1.080214		-1.548754		-2.452083		0.571968		286.801218		460.752085		-0.265823		1.309766		1.926600		3.261617		-50.922670		60.519334		
